<svg width="73" height="81" viewBox="0 0 73 81" fill="none" xmlns="http://www.w3.org/2000/svg">
<path d="M33.5425 0.340698C35.2373 -0.113403 37.0244 -0.114265 38.7192 0.339722V0.340698L38.3315 1.78992C39.0395 1.97962 39.7292 2.26201 40.3813 2.63855L42.0142 3.58191L42.7642 2.28308V2.2821L46.0308 4.16785V4.16882L45.2808 5.46765L48.5474 7.35339L49.2974 6.05457V6.05359L52.563 7.93933V7.94031L51.813 9.23914L55.0796 11.1249L55.8296 9.82605V9.82507L59.0952 11.7118H59.0962L58.3462 13.0106L61.6128 14.8964L62.3618 13.5975L65.6274 15.4833H65.6284L64.8784 16.7821L66.5122 17.7255C67.1645 18.1021 67.7546 18.5577 68.2729 19.076L69.3325 18.0155C70.5734 19.2563 71.4662 20.8039 71.9204 22.4989H71.9214L70.4722 22.8866C70.662 23.5947 70.7622 24.3335 70.7622 25.0868V26.9725H72.2622V30.744H70.7622V34.5155H72.2622V38.288H70.7622V42.0594H72.2622V45.8309H70.7622V49.6024H72.2622V53.3739H70.7622V55.2606C70.7622 56.0137 70.6619 56.7519 70.4722 57.4598L71.9204 57.8475C71.4663 59.5424 70.5731 61.0891 69.3325 62.33L68.2729 61.2704C67.8193 61.7241 67.3105 62.1298 66.7534 62.4764L66.5122 62.621L64.8784 63.5643L65.6284 64.8632L62.3628 66.7489L61.6128 65.4501L58.3462 67.3358L59.0962 68.6346L55.8296 70.5204L55.0796 69.2216L51.813 71.1073L52.562 72.4061L49.2964 74.2919L48.5474 72.993L45.2808 74.8798L46.0298 76.1776L42.7632 78.0634L42.0142 76.7655L40.3813 77.7079C39.7291 78.0845 39.0396 78.3678 38.3315 78.5575L38.7183 80.0057C37.0234 80.4596 35.2372 80.4589 33.5425 80.0048L33.9312 78.5575C33.223 78.3678 32.5337 78.0845 31.8813 77.7079L30.2476 76.7655L29.4976 78.0634L26.2319 76.1776L26.9819 74.8798L23.7153 72.993L22.9653 74.2919L19.6987 72.4061L20.4487 71.1073L17.1821 69.2216L16.4312 70.5204L13.1655 68.6346H13.1665L13.9165 67.3358L10.6499 65.4501L9.8999 66.7489H9.89893L6.63232 64.8632L7.3833 63.5643L5.75049 62.621L5.5083 62.4764C4.95135 62.1299 4.44329 61.724 3.98975 61.2704L2.9292 62.3309H2.92822C1.68768 61.0901 0.794406 59.5424 0.340332 57.8475L1.78955 57.4598C1.62352 56.8403 1.52605 56.1975 1.50439 55.5419L1.50049 55.2606V53.3739H0.000488281V49.6024H1.50049V45.8309H0.000488281V42.0594H1.50049V38.288H0.000488281V34.5155H1.50049V30.744H0.000488281V26.9725H1.50049V25.0868C1.50049 24.3335 1.59976 23.5947 1.78955 22.8866L0.340332 22.4989C0.792619 20.811 1.68088 19.2694 2.91357 18.0311L2.9292 18.0155L3.98975 19.076C4.44332 18.6224 4.95131 18.2166 5.5083 17.87L5.75049 17.7255L7.3833 16.7821L6.6333 15.4833L9.8999 13.5975L10.6499 14.8964L13.9165 13.0106L13.1665 11.7118L16.4321 9.82605L17.1821 11.1249L20.4487 9.23914L19.6987 7.94031L22.9644 6.05359L22.9653 6.05457L23.7153 7.35339L26.9819 5.46765L26.2319 4.16882L26.231 4.16785L29.4966 2.2821L29.4976 2.28308L30.2476 3.58191L31.8813 2.63855C32.5336 2.26201 33.2231 1.97959 33.9312 1.78992L33.5425 0.340698Z" fill="#0B0B0A" stroke="white" stroke-width="3" stroke-dasharray="4 4"/>
</svg>
