<svg width="96" height="106" viewBox="0 0 96 106" fill="none" xmlns="http://www.w3.org/2000/svg">
<path d="M53.1936 15.2718L77.3914 29.2424C80.8336 31.2298 82.9541 34.9026 82.9541 38.8773V66.8186C82.9541 70.7933 80.8336 74.4661 77.3914 76.4535L53.1936 90.4241C49.7513 92.4115 45.5103 92.4115 42.0681 90.4241L17.8703 76.4535C14.428 74.4661 12.3075 70.7933 12.3075 66.8186V38.8773C12.3075 34.9026 14.428 31.2298 17.8703 29.2424L42.0681 15.2718C45.5103 13.2844 49.7513 13.2844 53.1936 15.2718Z" fill="#0B0B0A"/>
<path fill-rule="evenodd" clip-rule="evenodd" d="M54.5842 1.86316C50.2814 -0.621054 44.9802 -0.621052 40.6774 1.86316L6.95341 21.3337C2.65062 23.8179 0 28.409 0 33.3774V72.3185C0 77.2869 2.65063 81.878 6.95341 84.3622L40.6774 103.833C44.9802 106.317 50.2814 106.317 54.5842 103.833L88.3082 84.3622C92.611 81.878 95.2617 77.2869 95.2617 72.3185V33.3774C95.2617 28.409 92.611 23.8179 88.3082 21.3337L54.5842 1.86316ZM40.6774 12.863C44.9802 10.3788 50.2814 10.3788 54.5842 12.863L78.7821 26.8337C83.0849 29.3179 85.7355 33.9089 85.7355 38.8773V66.8186C85.7355 71.787 83.0849 76.378 78.7821 78.8622L54.5842 92.8329C50.2814 95.3171 44.9802 95.3171 40.6774 92.8329L16.4796 78.8622C12.1768 76.378 9.52617 71.787 9.52617 66.8186V38.8773C9.52617 33.9089 12.1768 29.3179 16.4796 26.8337L40.6774 12.863Z" fill="#0B0B0A"/>
</svg>
