<svg width="230" height="346" viewBox="0 0 230 346" fill="none" xmlns="http://www.w3.org/2000/svg">
<path d="M0 19.5938V30.2479L52.2394 0H33.8394L0 19.5938Z" fill="#0B0B0A"/>
<path d="M83.6359 0L0 48.4272V59.0812L102.036 0H83.6359Z" fill="#0B0B0A"/>
<path d="M133.432 0L0 77.2605V87.9145L151.832 0H133.432Z" fill="#0B0B0A"/>
<path d="M183.229 0L0 106.094V116.748L201.629 0H183.229Z" fill="#0B0B0A"/>
<path d="M230 1.75171L0 134.927V145.581L230 12.4057V1.75171Z" fill="#0B0B0A"/>
<path d="M230 30.585L0 163.761V174.415L230 41.2391V30.585Z" fill="#0B0B0A"/>
<path d="M230 59.4184L0 192.594V203.248L230 70.0724V59.4184Z" fill="#0B0B0A"/>
<path d="M230 88.2517L0 221.427V232.081L230 98.9057V88.2517Z" fill="#0B0B0A"/>
<path d="M230 117.085L0 250.261V260.915L230 127.739V117.085Z" fill="#0B0B0A"/>
<path d="M230 145.918L0 279.094V289.748L230 156.572V145.918Z" fill="#0B0B0A"/>
<path d="M230 174.752L0 307.927V318.581L230 185.406V174.752Z" fill="#0B0B0A"/>
<path d="M230 203.585L0 336.76V346H2.44295L230 214.239V203.585Z" fill="#0B0B0A"/>
<path d="M230 232.418L33.8394 346H52.2394L230 243.072V232.418Z" fill="#0B0B0A"/>
<path d="M230 261.252L83.6359 346H102.036L230 271.906V261.252Z" fill="#0B0B0A"/>
<path d="M230 290.085L133.432 346H151.832L230 300.739V290.085Z" fill="#0B0B0A"/>
<path d="M230 318.918L183.229 346H201.629L230 329.572V318.918Z" fill="#0B0B0A"/>
</svg>
