<svg width="50" height="30" viewBox="0 0 50 30" fill="none" xmlns="http://www.w3.org/2000/svg">
<path d="M11.1111 5.99999V0H50V5.99999H11.1111ZM11.1111 18V12H50V18H11.1111ZM11.1111 30V24H50V30H11.1111ZM2.77779 5.99999C1.99075 5.99999 1.33149 5.71199 0.80001 5.13599C0.268528 4.55999 0.00186143 3.84799 9.57853e-06 3C-0.00184227 2.152 0.264825 1.44 0.80001 0.863999C1.33519 0.288 1.99445 0 2.77779 0C3.56112 0 4.2213 0.288 4.75834 0.863999C5.29538 1.44 5.56112 2.152 5.55556 3C5.55001 3.84799 5.28334 4.56099 4.75556 5.13899C4.22779 5.71699 3.56853 6.00399 2.77779 5.99999ZM2.77779 18C1.99075 18 1.33149 17.712 0.80001 17.136C0.268528 16.56 0.00186143 15.848 9.57853e-06 15C-0.00184227 14.152 0.264825 13.44 0.80001 12.864C1.33519 12.288 1.99445 12 2.77779 12C3.56112 12 4.2213 12.288 4.75834 12.864C5.29538 13.44 5.56112 14.152 5.55556 15C5.55001 15.848 5.28334 16.561 4.75556 17.139C4.22779 17.717 3.56853 18.004 2.77779 18ZM2.77779 30C1.99075 30 1.33149 29.712 0.80001 29.136C0.268528 28.56 0.00186143 27.848 9.57853e-06 27C-0.00184227 26.152 0.264825 25.44 0.80001 24.864C1.33519 24.288 1.99445 24 2.77779 24C3.56112 24 4.2213 24.288 4.75834 24.864C5.29538 25.44 5.56112 26.152 5.55556 27C5.55001 27.848 5.28334 28.561 4.75556 29.139C4.22779 29.717 3.56853 30.004 2.77779 30Z" fill="#FFFCFC"/>
</svg>
