<svg width="90" height="90" viewBox="0 0 90 90" fill="none" xmlns="http://www.w3.org/2000/svg">
<path d="M26.25 41.25C22.7626 41.25 21.0189 41.25 19.5883 41.6332C15.706 42.6735 12.6736 45.7061 11.6333 49.5881C11.25 51.0188 11.25 52.7625 11.25 56.25V60.75C11.25 67.0508 11.25 70.2007 12.4762 72.6075C13.5548 74.7244 15.2758 76.4453 17.3926 77.5238C19.7991 78.75 22.9494 78.75 29.25 78.75H60.75C67.0508 78.75 70.2007 78.75 72.6075 77.5238C74.7244 76.4453 76.4453 74.7244 77.5238 72.6075C78.75 70.2007 78.75 67.0508 78.75 60.75V56.25C78.75 52.7625 78.75 51.0188 78.3668 49.5881C77.3265 45.7061 74.2939 42.6735 70.4119 41.6332C68.9813 41.25 67.2375 41.25 63.75 41.25M60 26.25L45 11.25M45 11.25L30 26.25M45 11.25V56.25" stroke="white" stroke-width="7" stroke-linecap="round" stroke-linejoin="round"/>
</svg>
