<svg width="90" height="90" viewBox="0 0 90 90" fill="none" xmlns="http://www.w3.org/2000/svg">
<path d="M26.25 71.25H48.75C59.3565 71.25 64.6597 71.25 67.9549 67.9549C71.25 64.6597 71.25 59.3565 71.25 48.75V37.5M71.25 37.5C73.8758 37.5 78.7819 44.9786 80.625 46.875M71.25 37.5C68.6242 37.5 63.7181 44.9786 61.875 46.875" stroke="white" stroke-width="8.5" stroke-linecap="round" stroke-linejoin="round"/>
<path d="M18.75 26.25V63.75" stroke="white" stroke-width="8.5" stroke-linecap="round" stroke-linejoin="round"/>
<path d="M18.75 26.25C22.8921 26.25 26.25 22.8921 26.25 18.75C26.25 14.6079 22.8921 11.25 18.75 11.25C14.6079 11.25 11.25 14.6079 11.25 18.75C11.25 22.8921 14.6079 26.25 18.75 26.25Z" stroke="white" stroke-width="8.5"/>
<path d="M71.25 26.25C75.3921 26.25 78.75 22.8921 78.75 18.75C78.75 14.6079 75.3921 11.25 71.25 11.25C67.1079 11.25 63.75 14.6079 63.75 18.75C63.75 22.8921 67.1079 26.25 71.25 26.25Z" stroke="white" stroke-width="8.5"/>
<path d="M18.75 78.75C22.8921 78.75 26.25 75.3921 26.25 71.25C26.25 67.1079 22.8921 63.75 18.75 63.75C14.6079 63.75 11.25 67.1079 11.25 71.25C11.25 75.3921 14.6079 78.75 18.75 78.75Z" stroke="white" stroke-width="8.5"/>
</svg>
