<svg width="42" height="42" viewBox="0 0 42 42" fill="none" xmlns="http://www.w3.org/2000/svg">
<path d="M27 33.25C27 36.7019 29.7981 39.5 33.25 39.5C36.7019 39.5 39.5 36.7019 39.5 33.25C39.5 29.7981 36.7019 27 33.25 27C29.7981 27 27 29.7981 27 33.25ZM27 33.25C22.0273 33.25 17.2581 31.2746 13.7417 27.7583C10.2254 24.2419 8.25 19.4727 8.25 14.5M8.25 14.5C11.7018 14.5 14.5 11.7018 14.5 8.25C14.5 4.79823 11.7018 2 8.25 2C4.79823 2 2 4.79823 2 8.25C2 11.7018 4.79823 14.5 8.25 14.5ZM8.25 14.5V39.5" stroke="#FFF9F9" stroke-width="4" stroke-linecap="round" stroke-linejoin="round"/>
</svg>
