<svg width="46" height="46" viewBox="0 0 46 46" fill="none" xmlns="http://www.w3.org/2000/svg">
<path d="M22.8335 29.0835C26.2854 29.0835 29.0835 26.2854 29.0835 22.8335C29.0835 19.3816 26.2854 16.5835 22.8335 16.5835C19.3816 16.5835 16.5835 19.3816 16.5835 22.8335C16.5835 26.2854 19.3816 29.0835 22.8335 29.0835Z" stroke="white" stroke-width="4" stroke-linecap="round" stroke-linejoin="round"/>
<path d="M36.8485 28.5152C36.5965 29.0865 36.5213 29.72 36.6325 30.3344C36.744 30.9488 37.0369 31.5158 37.4735 31.9621L37.5871 32.0758C37.9394 32.4275 38.2188 32.8452 38.4094 33.3052C38.6 33.765 38.6981 34.2579 38.6981 34.7556C38.6981 35.2535 38.6 35.7465 38.4094 36.2063C38.2188 36.666 37.9394 37.0838 37.5871 37.4356C37.2354 37.7877 36.8175 38.0671 36.3577 38.2577C35.8979 38.4483 35.405 38.5465 34.9073 38.5465C34.4094 38.5465 33.9165 38.4483 33.4567 38.2577C32.9969 38.0671 32.5792 37.7877 32.2273 37.4356L32.1135 37.3219C31.6673 36.8854 31.1004 36.5925 30.486 36.481C29.8717 36.3696 29.2379 36.4448 28.6667 36.6969C28.1065 36.9371 27.6288 37.3356 27.2923 37.8438C26.9558 38.3519 26.7752 38.9473 26.7727 39.5569V39.8788C26.7727 40.8833 26.3738 41.8469 25.6633 42.5573C24.9529 43.2675 23.9894 43.6667 22.9848 43.6667C21.9802 43.6667 21.0169 43.2675 20.3065 42.5573C19.596 41.8469 19.1969 40.8833 19.1969 39.8788V39.7083C19.1823 39.0815 18.9794 38.4735 18.6146 37.9635C18.2498 37.4533 17.74 37.065 17.1515 36.8485C16.5803 36.5965 15.9466 36.5213 15.3322 36.6325C14.7178 36.744 14.1509 37.0369 13.7045 37.4735L13.5909 37.5871C13.2391 37.9394 12.8214 38.2188 12.3615 38.4094C11.9017 38.6 11.4088 38.6981 10.911 38.6981C10.4132 38.6981 9.92029 38.6 9.46046 38.4094C9.0006 38.2188 8.58285 37.9394 8.23106 37.5871C7.87888 37.2354 7.59948 36.8175 7.40888 36.3577C7.21825 35.8979 7.12013 35.405 7.12013 34.9073C7.12013 34.4094 7.21825 33.9165 7.40888 33.4567C7.59948 32.9969 7.87888 32.5792 8.23106 32.2273L8.34469 32.1135C8.78131 31.6673 9.07421 31.1004 9.18563 30.486C9.29702 29.8717 9.22181 29.2379 8.96969 28.6667C8.72963 28.1065 8.33098 27.6288 7.82285 27.2923C7.31473 26.9558 6.71929 26.7752 6.10985 26.7727H5.78788C4.78327 26.7727 3.81981 26.3738 3.10944 25.6633C2.39908 24.9529 2 23.9894 2 22.9848C2 21.9802 2.39908 21.0169 3.10944 20.3065C3.81981 19.596 4.78327 19.1969 5.78788 19.1969H5.95833C6.58521 19.1823 7.19319 18.9794 7.70321 18.6146C8.21325 18.2498 8.60173 17.74 8.81819 17.1515C9.07029 16.5803 9.1455 15.9466 9.0341 15.3322C8.92271 14.7178 8.62981 14.1509 8.19319 13.7045L8.07954 13.5909C7.72735 13.2391 7.44798 12.8214 7.25735 12.3615C7.06673 11.9017 6.9686 11.4088 6.9686 10.911C6.9686 10.4132 7.06673 9.92029 7.25735 9.46046C7.44798 9.0006 7.72735 8.58285 8.07954 8.23106C8.43133 7.87888 8.8491 7.59948 9.30894 7.40888C9.76877 7.21825 10.2617 7.12013 10.7595 7.12013C11.2573 7.12013 11.7502 7.21825 12.21 7.40888C12.6698 7.59948 13.0876 7.87888 13.4394 8.23106L13.553 8.34469C13.9994 8.78131 14.5663 9.07421 15.1807 9.18563C15.7951 9.29702 16.4288 9.22181 17 8.96969H17.1515C17.7117 8.72963 18.1894 8.33098 18.5259 7.82285C18.8625 7.31473 19.0431 6.71929 19.0454 6.10985V5.78788C19.0454 4.78327 19.4446 3.81981 20.155 3.10944C20.8652 2.39908 21.8288 2 22.8333 2C23.8379 2 24.8015 2.39908 25.5117 3.10944C26.2221 3.81981 26.6213 4.78327 26.6213 5.78788V5.95833C26.6235 6.56777 26.8042 7.16321 27.1408 7.67133C27.4773 8.17946 27.955 8.5781 28.5152 8.81819C29.0865 9.07029 29.72 9.1455 30.3344 9.0341C30.9488 8.92271 31.5158 8.62981 31.9621 8.19319L32.0758 8.07954C32.4275 7.72735 32.8452 7.44798 33.3052 7.25735C33.765 7.06673 34.2579 6.9686 34.7556 6.9686C35.2535 6.9686 35.7465 7.06673 36.2063 7.25735C36.666 7.44798 37.0838 7.72735 37.4356 8.07954C37.7877 8.43133 38.0671 8.8491 38.2577 9.30894C38.4483 9.76877 38.5465 10.2617 38.5465 10.7595C38.5465 11.2573 38.4483 11.7502 38.2577 12.21C38.0671 12.6698 37.7877 13.0876 37.4356 13.4394L37.3219 13.553C36.8854 13.9994 36.5925 14.5663 36.481 15.1807C36.3696 15.7951 36.4448 16.4288 36.6969 17V17.1515C36.9371 17.7117 37.3356 18.1894 37.8438 18.5259C38.3519 18.8625 38.9473 19.0431 39.5569 19.0454H39.8788C40.8833 19.0454 41.8469 19.4446 42.5573 20.155C43.2675 20.8652 43.6667 21.8288 43.6667 22.8333C43.6667 23.8379 43.2675 24.8015 42.5573 25.5117C41.8469 26.2221 40.8833 26.6213 39.8788 26.6213H39.7083C39.099 26.6235 38.5035 26.8042 37.9954 27.1408C37.4873 27.4773 37.0885 27.955 36.8485 28.5152Z" stroke="white" stroke-width="4" stroke-linecap="round" stroke-linejoin="round"/>
</svg>
