<svg width="90" height="90" viewBox="0 0 90 90" fill="none" xmlns="http://www.w3.org/2000/svg">
<path d="M71.25 78.75V56.25M60 67.5H82.5M45 56.25H30C23.0109 56.25 19.5163 56.25 16.7598 57.3919C13.0843 58.9144 10.1642 61.8345 8.6418 65.5099C7.5 68.2665 7.5 71.7608 7.5 78.75M58.125 12.3404C63.6221 14.5656 67.5 19.9549 67.5 26.25C67.5 32.5451 63.6221 37.9346 58.125 40.1595M50.625 26.25C50.625 34.5343 43.9091 41.25 35.625 41.25C27.3407 41.25 20.625 34.5343 20.625 26.25C20.625 17.9657 27.3407 11.25 35.625 11.25C43.9091 11.25 50.625 17.9657 50.625 26.25Z" stroke="white" stroke-width="7" stroke-linecap="round" stroke-linejoin="round"/>
</svg>
