<svg width="2893" height="244" viewBox="0 0 2893 244" fill="none" xmlns="http://www.w3.org/2000/svg">
<path d="M2892.96 240.434C2847.77 240.434 2847.77 3.49995 2802.56 3.49995C2757.35 3.49996 2757.37 240.434 2712.16 240.434C2666.95 240.434 2666.97 3.49997 2621.76 3.49997C2576.55 3.49997 2576.57 240.434 2531.36 240.434C2486.15 240.434 2486.17 3.49998 2440.96 3.49999C2395.75 3.49999 2395.77 240.434 2350.56 240.434C2305.35 240.434 2305.37 3.5 2260.16 3.5C2214.95 3.50001 2214.97 240.434 2169.78 240.434C2124.59 240.434 2124.57 3.50001 2079.28 3.50002C2034 3.50002 2034.1 240.434 1988.91 240.434C1943.72 240.434 1943.67 3.50003 1898.58 3.50003C1853.49 3.50004 1853.39 240.434 1808.06 240.434C1762.73 240.434 1762.87 3.50005 1717.68 3.50005C1672.49 3.50005 1672.47 240.434 1627.28 240.434C1582.09 240.434 1582.09 3.50006 1536.88 3.50007C1491.67 3.50007 1491.69 240.434 1446.51 240.434C1401.32 240.434 1401.29 3.50008 1356.08 3.50008C1310.87 3.50008 1310.89 240.434 1265.68 240.434C1220.47 240.434 1220.49 3.50009 1175.28 3.5001C1130.07 3.5001 1130.09 240.434 1084.88 240.434C1039.67 240.434 1039.69 3.50011 994.479 3.50011C949.266 3.50012 949.29 240.434 904.078 240.434C858.865 240.434 858.89 3.50012 813.677 3.50013C768.465 3.50013 768.465 240.434 723.277 240.434C678.089 240.434 678.064 3.50014 632.876 3.50014C587.688 3.50015 587.664 240.434 542.476 240.434C497.288 240.434 497.263 3.50016 452.051 3.50016C406.839 3.50016 406.863 240.434 361.65 240.434C316.438 240.434 316.438 3.50017 271.25 3.50018C226.062 3.50018 226.038 240.434 180.825 240.434C135.613 240.434 135.613 3.50019 90.4003 3.50019C45.1879 3.5002 45.188 240.434 -0.000136591 240.434" stroke="#A0A3BD" stroke-width="7" stroke-miterlimit="10"/>
</svg>
