<svg width="27" height="36" viewBox="0 0 27 36" fill="none" xmlns="http://www.w3.org/2000/svg">
<path d="M23.625 4.5C25.4531 4.5 27 6.04688 27 7.875V32.625C27 34.5234 25.4531 36 23.625 36H3.375C1.47656 36 0 34.5234 0 32.625V7.875C0 6.04688 1.47656 4.5 3.375 4.5H9C9 2.03906 10.9688 0 13.5 0C15.9609 0 18 2.03906 18 4.5H23.625ZM13.5 2.8125C12.5156 2.8125 11.8125 3.58594 11.8125 4.5C11.8125 5.48438 12.5156 6.1875 13.5 6.1875C14.4141 6.1875 15.1875 5.48438 15.1875 4.5C15.1875 3.58594 14.4141 2.8125 13.5 2.8125ZM23.625 32.2031V8.29688C23.625 8.08594 23.4141 7.875 23.2031 7.875H20.25V10.4062C20.25 10.8984 19.8281 11.25 19.4062 11.25H7.59375C7.10156 11.25 6.75 10.8984 6.75 10.4062V7.875H3.79688C3.51562 7.875 3.375 8.08594 3.375 8.29688V32.2031C3.375 32.4844 3.51562 32.625 3.79688 32.625H23.2031C23.4141 32.625 23.625 32.4844 23.625 32.2031Z" fill="black"/>
</svg>
